function data()
return { 
		subMeshes = {
			{ 
				indices = { 
					normal = { 
						count = 46272,
						offset = 345300,
					},
					position = { 
						count = 46272,
						offset = 252756,
					},
					tangent = { 
						count = 46272,
						offset = 391572,
					},
					uv0 = { 
						count = 46272,
						offset = 299028,
					},
					uv1 = { 
						count = 46272,
						offset = 437844,
					},
				},
			},
		},
		vertexAttr = { 
			normal = { 
				count = 38292,
				numComp = 3,
				offset = 77888,
			},
			position = { 
				count = 31656,
				numComp = 3,
				offset = 0,
			},
			tangent = { 
				count = 115472,
				numComp = 4,
				offset = 116180,
			},
			uv0 = { 
				count = 46232,
				numComp = 2,
				offset = 31656,
			},
			uv1 = { 
				count = 21104,
				numComp = 2,
				offset = 231652,
			},
		},
	}
end